<svg id="Layer_1" data-name="Layer 1" xmlns="http://www.w3.org/2000/svg" viewBox="0 0 600 600"><defs><style>.cls-1{fill:none;stroke:#afafaf;stroke-linecap:round;stroke-linejoin:round;stroke-width:10px;}</style></defs><title>SVG</title><path class="cls-1" d="M241,310.21c-4.2,10.65-24.2,101-24.2,132.09"/><path class="cls-1" d="M219.58,456.44c.33,2.31,1,7.43,6.1,9.25a7.44,7.44,0,0,0,4.4,1.6c4.24,0,8-4.3,11.21-7.95,10.49-11.89,19.39-27,27.24-45.94,3.49-8.51,5.83-17.66,8.07-26.49l1.33-5.28c1.67-6.29,3.26-12.67,4.86-19l.09-.43a58,58,0,0,0,10.33,7.07,66.34,66.34,0,0,0,28.09,8c9.61.65,19.71-.59,30.89-3.79a92.55,92.55,0,0,0,24.14-10.91c27.05-17.33,45.49-47.64,51.91-85.34A169.07,169.07,0,0,0,431,247a110.29,110.29,0,0,0-4.1-31A107.76,107.76,0,0,0,402,171.94a120.3,120.3,0,0,0-40.21-28.41,132.3,132.3,0,0,0-58.16-10.69c-7.21.33-14.24.72-21.12,1.69-19.42,2.8-36.49,8.57-52.23,17.69a122.63,122.63,0,0,0-46.63,47.15c-5.64,10.19-11.18,28.21-13.55,40-2.77,13.85-.33,37.89,5.28,51.44,4,9.75,12.74,20.21,19.75,27.54a9.81,9.81,0,0,0,15.95-2.56l10-21a20.3,20.3,0,0,0,.44-16.11,53.71,53.71,0,0,1-3.37-19.54,81,81,0,0,1,9.91-39.55c12.05-22.32,32.06-36.44,57.9-40.8,14.7-2.44,31.81-1.4,44.64,2.7a60.33,60.33,0,0,1,28.9,19.26c7.59,9.35,11.92,21.21,12.9,35.25a135.61,135.61,0,0,1-.88,24c-2.6,23.11-9.32,41.67-20,55.26-8.73,11.14-18.15,16.75-28.8,17.11-6.85.26-12-1.14-16.59-4.46A19.77,19.77,0,0,1,298,315.81c-1.4-5.84.29-11.89,2.05-18.32l.29-1c1.57-5.64,3.19-10.79,4.79-15.87,2.51-8,5.12-16.26,7.24-25.88,2.44-10.82,2.77-19.58,1-26.72-2.19-8.86-6.94-15.51-14.21-19.78-7.65-4.46-18.5-5.31-27.63-2.19-13.59,4.63-24,17-28.44,33.86a72.65,72.65,0,0,0-2,26.75,83.54,83.54,0,0,0,5.31,21.57"/></svg>