<svg id="Layer_1" data-name="Layer 1" xmlns="http://www.w3.org/2000/svg" viewBox="0 0 600 600"><defs><style>.cls-1{fill:none;stroke:#afafaf;stroke-linecap:round;stroke-linejoin:round;stroke-width:10px;}</style></defs><title>SVG</title><path class="cls-1" d="M232.93,378.28a140.43,140.43,0,0,1-86.65,29.81,130.9,130.9,0,0,1-16.73-1,196.75,196.75,0,0,0,107.21,31.36c128.6,0,198.91-106.53,198.91-198.87,0-3.09-.11-6.07-.26-9a139.42,139.42,0,0,0,35-36.28,145.71,145.71,0,0,1-40.27,11,69.5,69.5,0,0,0,30.74-38.63,139.67,139.67,0,0,1-44.32,16.92,69.88,69.88,0,0,0-120.89,47.79,72,72,0,0,0,1.62,15.94"/><path class="cls-1" d="M275.88,238.2a198.11,198.11,0,0,1-122.6-70.89,69.91,69.91,0,0,0,21.48,93.41,69,69,0,0,1-31.58-8.61v.77a70.21,70.21,0,0,0,56,68.67,69.75,69.75,0,0,1-18.32,2.3,61.79,61.79,0,0,1-13.23-1.19,70.89,70.89,0,0,0,47.85,46.08"/></svg>