<?xml version="1.0" encoding="utf-8"?>
<!-- Generator: Adobe Illustrator 23.0.2, SVG Export Plug-In . SVG Version: 6.00 Build 0)  -->
<svg version="1.1" id="Layer_1" xmlns="http://www.w3.org/2000/svg" xmlns:xlink="http://www.w3.org/1999/xlink" x="0px" y="0px"
	 viewBox="0 0 1749 250.43" style="enable-background:new 0 0 1749 250.43;" xml:space="preserve">
<style type="text/css">
	.st0{fill:#FFFFFF;}
</style>
<g>
	<path class="st0" d="M1723.23,151.82c8.91-2.28,25.77-11.65,25.77-30.8c0-20.19-16.33-31.08-31.69-31.08v15.24
		c-0.55,0-13.41-0.15-13.41-12.8c0-8.21,8.33-11.82,11.12-12.8c0,0,0,0,0,0h18.13c0,0,0,0,0,0V61.3c0,0,0,0,0,0h-20.65l-1.12,0.28
		c-8.91,2.28-25.77,11.65-25.77,30.8c0,20.19,16.33,31.08,31.69,31.08v-15.24c0,0,0,0,0,0c0.56,0,13.41,0.15,13.41,12.8
		c0,8.21-8.33,11.82-11.12,12.8c0,0,0,0,0,0h-25.44c0,0,0,0,0,0v18.28c0,0,0,0,0,0h27.96L1723.23,151.82z"/>
	<polygon class="st0" points="559.48,235.85 586.06,235.85 586.06,231.35 564.16,231.35 564.16,216.11 586.06,216.11 586.06,211.67 
		564.16,211.67 564.16,196.49 586.06,196.49 586.06,192.05 559.48,192.05 	"/>
	<polygon class="st0" points="625.05,192.05 620.38,192.05 620.38,235.85 644.61,235.85 644.61,231.35 625.05,231.35 	"/>
	<polygon class="st0" points="678.76,235.85 705.34,235.85 705.34,231.35 683.43,231.35 683.43,216.11 705.34,216.11 705.34,211.67 
		683.43,211.67 683.43,196.49 705.34,196.49 705.34,192.05 678.76,192.05 	"/>
	<polygon class="st0" points="755.73,229.13 742.23,192.05 737.37,192.05 753.33,235.85 758.07,235.85 774.09,192.05 769.17,192.05 
			"/>
	<path class="st0" d="M813.33,192.05l-16.56,43.8h4.92l4.2-11.1h19.98l4.26,11.1h4.86l-16.62-43.8H813.33z M807.57,220.31
		l8.28-21.96l8.34,21.96H807.57z"/>
	<polygon class="st0" points="858.39,196.37 871.59,196.37 871.59,235.85 876.27,235.85 876.27,196.37 889.42,196.37 889.42,192.05 
		858.39,192.05 	"/>
	<polygon class="st0" points="922.89,235.85 949.47,235.85 949.47,231.35 927.57,231.35 927.57,216.11 949.47,216.11 949.47,211.67 
		927.57,211.67 927.57,196.49 949.47,196.49 949.47,192.05 922.89,192.05 	"/>
	<path class="st0" d="M996.03,192.05h-12.24v43.8h12.42c6.44,0,11.82-2.09,16.14-6.27s6.48-9.39,6.48-15.63
		c0-6.28-2.12-11.5-6.36-15.66C1008.23,194.13,1002.75,192.05,996.03,192.05z M1008.9,226.46c-3.42,3.34-7.77,5.01-13.05,5.01h-7.38
		v-35.1h7.2c5.56,0,10.01,1.65,13.35,4.95s5.01,7.51,5.01,12.63C1014.03,218.95,1012.32,223.12,1008.9,226.46z"/>
	<polygon class="st0" points="1093.95,235.85 1120.53,235.85 1120.53,231.35 1098.63,231.35 1098.63,216.11 1120.53,216.11 
		1120.53,211.67 1098.63,211.67 1098.63,196.49 1120.53,196.49 1120.53,192.05 1093.95,192.05 	"/>
	<polygon class="st0" points="1186.95,192.05 1181.67,192.05 1170.27,209.39 1158.81,192.05 1153.53,192.05 1167.45,213.35 
		1152.51,235.85 1157.79,235.85 1170.15,217.01 1182.57,235.85 1187.85,235.85 1172.97,213.05 	"/>
	<path class="st0" d="M1234.23,192.05h-13.68v43.8h4.68v-13.62h9c4.72,0,8.56-1.44,11.52-4.32c2.96-2.88,4.44-6.48,4.44-10.8
		c0-4.32-1.48-7.91-4.44-10.77C1242.79,193.48,1238.95,192.05,1234.23,192.05z M1242.33,214.82c-2.08,2.02-4.88,3.03-8.4,3.03h-8.7
		v-21.48h8.7c3.52,0,6.32,1.01,8.4,3.03c2.08,2.02,3.12,4.59,3.12,7.71S1244.41,212.8,1242.33,214.82z"/>
	<polygon class="st0" points="1284.03,235.85 1310.61,235.85 1310.61,231.35 1288.71,231.35 1288.71,216.11 1310.61,216.11 
		1310.61,211.67 1288.71,211.67 1288.71,196.49 1310.61,196.49 1310.61,192.05 1284.03,192.05 	"/>
	<path class="st0" d="M1370.34,214.46c1.94-2.5,2.91-5.33,2.91-8.49c0-3.92-1.42-7.22-4.26-9.9c-2.84-2.68-6.38-4.02-10.62-4.02
		h-13.44v43.8h4.68v-39.48h8.4c3.2,0,5.76,0.9,7.68,2.7s2.88,4.1,2.88,6.9c0,2.6-0.98,4.89-2.94,6.87
		c-1.96,1.98-4.52,2.97-7.68,2.97h-3l13.2,20.04h5.46l-11.1-16.56C1365.79,218.57,1368.4,216.96,1370.34,214.46z"/>
	<rect x="1407.51" y="192.05" class="st0" width="4.68" height="43.8"/>
	<polygon class="st0" points="1447.77,235.85 1474.35,235.85 1474.35,231.35 1452.45,231.35 1452.45,216.11 1474.35,216.11 
		1474.35,211.67 1452.45,211.67 1452.45,196.49 1474.35,196.49 1474.35,192.05 1447.77,192.05 	"/>
	<polygon class="st0" points="1539.69,228.41 1513.89,192.05 1508.67,192.05 1508.67,235.85 1513.35,235.85 1513.35,199.19 
		1539.39,235.85 1544.37,235.85 1544.37,192.05 1539.69,192.05 	"/>
	<path class="st0" d="M1610.22,229.37c-2.74,1.76-5.95,2.64-9.63,2.64c-5,0-9.2-1.76-12.6-5.28c-3.4-3.52-5.1-7.78-5.1-12.78
		c0-5,1.7-9.26,5.1-12.78c3.4-3.52,7.6-5.28,12.6-5.28c3.32,0,6.35,0.83,9.09,2.49c2.74,1.66,4.87,3.89,6.39,6.69l4.02-2.34
		c-2-3.44-4.73-6.18-8.19-8.22s-7.23-3.06-11.31-3.06c-6.2,0-11.5,2.2-15.9,6.6c-4.4,4.4-6.6,9.7-6.6,15.9c0,6.2,2.2,11.5,6.6,15.9
		c4.4,4.4,9.7,6.6,15.9,6.6c4.44,0,8.41-1.09,11.91-3.27c3.5-2.18,6.23-5.13,8.19-8.85l-4.14-2.16
		C1615.07,225.21,1612.96,227.61,1610.22,229.37z"/>
	<polygon class="st0" points="1653.03,235.85 1679.61,235.85 1679.61,231.35 1657.71,231.35 1657.71,216.11 1679.61,216.11 
		1679.61,211.67 1657.71,211.67 1657.71,196.49 1679.61,196.49 1679.61,192.05 1653.03,192.05 	"/>
	<path class="st0" d="M1737.9,216.65c-0.7-0.8-1.67-1.57-2.91-2.31c-1.24-0.74-2.33-1.3-3.27-1.68c-0.94-0.38-2.17-0.83-3.69-1.35
		c-1.52-0.52-2.6-0.9-3.24-1.14c-0.64-0.24-1.54-0.64-2.7-1.2c-1.16-0.56-1.98-1.08-2.46-1.56c-0.48-0.48-0.94-1.13-1.38-1.95
		c-0.44-0.82-0.66-1.71-0.66-2.67c0-2.04,0.83-3.75,2.49-5.13c1.66-1.38,3.71-2.07,6.15-2.07c4.4,0,7.7,1.74,9.9,5.22l3.72-2.76
		c-3.36-4.4-7.88-6.6-13.56-6.6c-3.84,0-7.04,1.09-9.6,3.27c-2.56,2.18-3.84,4.87-3.84,8.07c0,1.8,0.33,3.39,0.99,4.77
		c0.66,1.38,1.65,2.54,2.97,3.48c1.32,0.94,2.57,1.67,3.75,2.19c1.18,0.52,2.69,1.1,4.53,1.74c1.52,0.52,2.61,0.9,3.27,1.14
		s1.58,0.65,2.76,1.23s2.03,1.13,2.55,1.65c0.52,0.52,1,1.21,1.44,2.07c0.44,0.86,0.66,1.81,0.66,2.85c0,2.4-0.87,4.38-2.61,5.94
		s-3.97,2.34-6.69,2.34c-4.76,0-8.6-2.26-11.52-6.78l-3.96,3c3.76,5.36,8.92,8.04,15.48,8.04c4.08,0,7.44-1.25,10.08-3.75
		c2.64-2.5,3.96-5.43,3.96-8.79c0-1.52-0.26-2.91-0.78-4.17C1739.21,218.48,1738.6,217.45,1737.9,216.65z"/>
	<path class="st0" d="M601.62,118.61c5.79-2.23,10.15-5.79,13.08-10.66c2.93-4.88,4.4-10.29,4.4-16.24c0-8.76-3.02-16.02-9.05-21.76
		c-6.04-5.74-14.14-8.62-24.3-8.62h-28.4v90.52h17.24v-74.4h9.18c11.99,0,17.98,4.75,17.98,14.26c0,3.89-1.47,7.42-4.4,10.6
		c-2.94,3.18-7.46,4.77-13.58,4.77h-8.43l27.16,44.76h19.72L601.62,118.61z"/>
	<path class="st0" d="M737.89,139.51c9.01-9.05,13.52-20.03,13.52-32.92c0-12.9-4.51-23.87-13.52-32.92
		c-9.01-9.05-19.96-13.58-32.86-13.58c-12.82,0-23.73,4.55-32.74,13.64c-9.01,9.09-13.52,20.05-13.52,32.86
		c0,12.9,4.5,23.87,13.52,32.92c9.01,9.05,19.92,13.58,32.74,13.58C717.93,153.09,728.88,148.56,737.89,139.51z M675.89,106.59
		c0-8.18,2.83-15.15,8.49-20.89c5.66-5.74,12.54-8.62,20.65-8.62c8.1,0,15,2.9,20.71,8.68c5.7,5.79,8.56,12.73,8.56,20.83
		c0,8.1-2.85,15.05-8.56,20.83c-5.7,5.79-12.61,8.68-20.71,8.68c-8.1,0-14.99-2.87-20.65-8.62
		C678.72,121.74,675.89,114.77,675.89,106.59z"/>
	<polygon class="st0" points="814.52,92.45 796.05,61.33 777.08,61.33 805.84,108.94 805.84,151.85 823.08,151.85 823.08,109.31 
		852.1,61.33 833.13,61.33 	"/>
	<path class="st0" d="M902.32,61.33l-32.12,90.52h17.98l5.46-15.75h34.72l5.46,15.75h17.98l-32.12-90.52H902.32z M899.34,119.61
		L911,85.88l11.66,33.73H899.34z"/>
	<polygon class="st0" points="1007.96,61.33 990.73,61.33 990.73,151.85 1040.7,151.85 1040.7,135.35 1007.96,135.35 	"/>
	<polygon class="st0" points="1123.16,77.82 1147.22,77.82 1147.22,151.85 1164.45,151.85 1164.45,77.82 1188.51,77.82 
		1188.51,61.33 1123.16,61.33 	"/>
	<polygon class="st0" points="1297.38,151.85 1297.38,61.33 1280.14,61.33 1280.14,98.28 1246.04,98.28 1246.04,61.33 
		1228.81,61.33 1228.81,151.85 1246.04,151.85 1246.04,114.77 1280.14,114.77 1280.14,151.85 	"/>
	<path class="st0" d="M1396.89,107.95c2.93-4.88,4.4-10.29,4.4-16.24c0-8.76-3.02-16.02-9.05-21.76c-6.04-5.74-14.14-8.62-24.3-8.62
		h-28.4v90.52h17.24v-74.4h9.18c11.99,0,17.98,4.75,17.98,14.26c0,3.89-1.47,7.42-4.4,10.6c-2.94,3.18-7.46,4.77-13.58,4.77h-8.43
		l27.16,44.76h19.72l-20.58-33.23C1389.59,116.38,1393.95,112.83,1396.89,107.95z"/>
	<rect x="1443.45" y="61.33" class="st0" width="17.24" height="90.52"/>
	<polygon class="st0" points="1520.7,61.33 1503.46,61.33 1503.46,151.85 1553.44,151.85 1553.44,135.35 1520.7,135.35 	"/>
	<polygon class="st0" points="1612.21,61.33 1594.97,61.33 1594.97,151.85 1644.95,151.85 1644.95,135.35 1612.21,135.35 	"/>
	<path class="st0" d="M335.15,202.77c82.59,13.58,121.73-85.19,126.66-98.62l-0.14-0.04c1.03,0.16,2.06,0.32,3.13,0.32
		c11.59,0,20.98-9.4,20.98-20.99s-9.39-20.98-20.98-20.98c-11.59,0-20.98,9.39-20.98,20.98c0,8.36,4.93,15.53,12.01,18.9l-0.05-0.02
		c-56.66,99.72-95.9,91.64-112.64,60.26c-22.98-43.08-8.41-104.21-6.15-112.96c11.34-0.28,20.46-9.52,20.46-20.93
		c0-11.59-9.4-20.98-20.98-20.98c-11.59,0-20.98,9.39-20.98,20.98c0,9.88,6.85,18.11,16.05,20.34
		c-28.18,75.6-60.12,88.72-60.12,88.72C277.66,191.27,335.15,202.77,335.15,202.77z"/>
	<path class="st0" d="M442.15,238.55c0,0-174.76-37.6-384.47-8.23l-13.24-93.97c0,0,45.86,71.48,98.65,67.07
		c52.8-4.42,90.98-79.74,90.98-79.74s17.85,79.85,85.83,83.2c0,0-68.63-21.24-76.63-115.57c10-1.6,17.66-10.2,17.66-20.65
		c0-11.59-9.39-20.98-20.98-20.98s-20.98,9.4-20.98,20.98c0,9.68,6.59,17.75,15.51,20.17c-5.82,14.67-37.11,86.4-95.94,94.18
		c0,0-53.4,5.49-112.95-120.48l-0.65-0.06c9.69-1.86,17.01-10.35,17.01-20.58c0-11.59-9.4-20.98-20.98-20.98
		C9.39,22.91,0,32.31,0,43.9c0,10.34,7.5,18.89,17.35,20.62l26.33,181.25c0,0,172.69-42.76,407.96,4.67c0,0-8.98-73.69,39.93-133.15
		C437.24,169.52,442.15,238.55,442.15,238.55z"/>
	<path class="st0" d="M161.9,96.39c0,0,11.76,33.76,39.63,38.52c0,0-37.68-36.03-40.49-93.11l-0.82-0.04
		c10.56-1.1,18.82-9.92,18.82-20.77C179.03,9.4,169.63,0,158.04,0c-11.59,0-20.99,9.4-20.99,20.98c0,11.18,8.77,20.24,19.8,20.86
		c-0.34,11.64-4.28,97.66-46.99,120.22C109.86,162.07,141.97,159.02,161.9,96.39z"/>
</g>
</svg>
