<?xml version="1.0" encoding="utf-8"?>
<!-- Generator: Adobe Illustrator 23.0.2, SVG Export Plug-In . SVG Version: 6.00 Build 0)  -->
<svg version="1.1" id="Layer_1" xmlns="http://www.w3.org/2000/svg" xmlns:xlink="http://www.w3.org/1999/xlink" x="0px" y="0px"
	 viewBox="0 0 500 250.43" style="enable-background:new 0 0 500 250.43;" xml:space="preserve">
<style type="text/css">
	.st0{fill:#FFFFFF;}
</style>
<g>
	
	<path class="st0" d="M335.15,202.77c82.59,13.58,121.73-85.19,126.66-98.62l-0.14-0.04c1.03,0.16,2.06,0.32,3.13,0.32
		c11.59,0,20.98-9.4,20.98-20.99s-9.39-20.98-20.98-20.98c-11.59,0-20.98,9.39-20.98,20.98c0,8.36,4.93,15.53,12.01,18.9l-0.05-0.02
		c-56.66,99.72-95.9,91.64-112.64,60.26c-22.98-43.08-8.41-104.21-6.15-112.96c11.34-0.28,20.46-9.52,20.46-20.93
		c0-11.59-9.4-20.98-20.98-20.98c-11.59,0-20.98,9.39-20.98,20.98c0,9.88,6.85,18.11,16.05,20.34
		c-28.18,75.6-60.12,88.72-60.12,88.72C277.66,191.27,335.15,202.77,335.15,202.77z"/>
	<path class="st0" d="M442.15,238.55c0,0-174.76-37.6-384.47-8.23l-13.24-93.97c0,0,45.86,71.48,98.65,67.07
		c52.8-4.42,90.98-79.74,90.98-79.74s17.85,79.85,85.83,83.2c0,0-68.63-21.24-76.63-115.57c10-1.6,17.66-10.2,17.66-20.65
		c0-11.59-9.39-20.98-20.98-20.98s-20.98,9.4-20.98,20.98c0,9.68,6.59,17.75,15.51,20.17c-5.82,14.67-37.11,86.4-95.94,94.18
		c0,0-53.4,5.49-112.95-120.48l-0.65-0.06c9.69-1.86,17.01-10.35,17.01-20.58c0-11.59-9.4-20.98-20.98-20.98
		C9.39,22.91,0,32.31,0,43.9c0,10.34,7.5,18.89,17.35,20.62l26.33,181.25c0,0,172.69-42.76,407.96,4.67c0,0-8.98-73.69,39.93-133.15
		C437.24,169.52,442.15,238.55,442.15,238.55z"/>
	<path class="st0" d="M161.9,96.39c0,0,11.76,33.76,39.63,38.52c0,0-37.68-36.03-40.49-93.11l-0.82-0.04
		c10.56-1.1,18.82-9.92,18.82-20.77C179.03,9.4,169.63,0,158.04,0c-11.59,0-20.99,9.4-20.99,20.98c0,11.18,8.77,20.24,19.8,20.86
		c-0.34,11.64-4.28,97.66-46.99,120.22C109.86,162.07,141.97,159.02,161.9,96.39z"/>
	
</g>
</svg>
