<svg xmlns="http://www.w3.org/2000/svg" width="256" height="256" viewBox="0 0 256 256">
  <defs>
    <style>
      .cls-1 {
        fill: #fff;
        fill-rule: evenodd;
      }
    </style>
  </defs>
  <path id="Forma_1" data-name="Forma 1" class="cls-1" d="M129,10A119,119,0,1,0,248,129,119.135,119.135,0,0,0,129,10Zm0,224.255A105.255,105.255,0,1,1,234.255,129,105.375,105.375,0,0,1,129,234.255Zm65.516-167.97a6.87,6.87,0,0,0-9.306-2.8l-77.349,41.59a6.869,6.869,0,0,0-2.8,2.8L63.487,185.208a6.871,6.871,0,0,0,9.189,9.367l0,0,0.029-.016c0.028-.014.056-0.03,0.083-0.045l77.387-41.56a6.869,6.869,0,0,0,2.8-2.8l41.408-77.14c0.09-.156.177-0.313,0.254-0.475l0.056-.1-0.007,0A6.85,6.85,0,0,0,194.515,66.285ZM86.379,171.655L112.8,122.514l22.718,22.719Zm58.861-36.136L122.52,112.8l49.137-26.421"/>
</svg>
