<svg xmlns="http://www.w3.org/2000/svg" width="80" height="79" viewBox="0 0 80 79">
  <defs>
    <style>
      .cls-1 {
        fill: #fff;
        fill-rule: evenodd;
      }
    </style>
  </defs>
  <path id="Shape_1_copy" data-name="Shape 1 copy" class="cls-1" d="M52.77,53.552a5.985,5.985,0,0,0-8.719-3.2l-5.537,2.772c-0.268-.31-0.54-0.607-0.8-0.9-0.377-.413-0.733-0.8-1.02-1.18a48.758,48.758,0,0,1-7.026-13.976,29.775,29.775,0,0,1-1.458-7.015c1.405-.628,2.747-1.326,4.05-1.991,0.491-.248.987-0.507,1.478-0.754A6.765,6.765,0,0,0,37,17.97L34.78,13.007c-0.252-.564-0.512-1.146-0.746-1.718C33.556,10.171,33.05,9.012,32.5,7.9a6.425,6.425,0,0,0-3.606-3.553,6.445,6.445,0,0,0-5.053.392L23.8,4.756,17.828,7.794a10.515,10.515,0,0,0-4.973,5.261A26.282,26.282,0,0,0,11,23.671a63.363,63.363,0,0,0,3.805,20.807,66.143,66.143,0,0,0,14.324,23.9A32.651,32.651,0,0,0,39.2,76.006c0.265,0.112.543,0.228,0.8,0.321a9.923,9.923,0,0,0,8.57-.647c0.022-.021.052-0.026,0.075-0.048a31.331,31.331,0,0,1,3.1-1.624c0.744-.352,1.511-0.728,2.275-1.133a6.867,6.867,0,0,0,3.206-9.315ZM52.4,69.444c-0.013-.005-0.018.008,0,0-0.7.384-1.39,0.709-2.139,1.075a36.038,36.038,0,0,0-3.418,1.8,6.35,6.35,0,0,1-5.572.387c-0.193-.07-0.4-0.145-0.585-0.229a28.988,28.988,0,0,1-8.9-6.81A62.422,62.422,0,0,1,18.295,43.146,59.734,59.734,0,0,1,14.7,23.591a21.418,21.418,0,0,1,1.51-8.975,6.6,6.6,0,0,1,3.169-3.363l5.98-3.006A3,3,0,0,1,27.648,8a2.926,2.926,0,0,1,1.543,1.628l0.024,0.056c0.514,1.054.98,2.122,1.466,3.258,0.247,0.577.507,1.159,0.762,1.754l2.217,4.963c0.86,1.928.4,3.251-1.46,4.186-0.509.255-1,.516-1.508,0.757-1.483.768-2.886,1.474-4.369,2.118a0.36,0.36,0,0,0-.088.045A2.993,2.993,0,0,0,24.5,29.586c0,0.046,0,.09,0,0.135a32.21,32.21,0,0,0,1.662,8.626l0.008,0.018a52.124,52.124,0,0,0,7.587,15.066,18.906,18.906,0,0,0,1.263,1.479c0.377,0.413.733,0.8,1.02,1.179,0.042,0.045.079,0.1,0.121,0.151a2.882,2.882,0,0,0,1.152.8,2.826,2.826,0,0,0,2.275-.221l6-3.015a3,3,0,0,1,2.29-.306,2.793,2.793,0,0,1,1.5,1.66L49.392,55.2l4.474,10.017A2.911,2.911,0,0,1,52.4,69.444ZM46.095,23.6a17.371,17.371,0,0,1,7.166,8.063A18.836,18.836,0,0,1,54.6,42.657a1.892,1.892,0,0,0,1.179,2.134,2.472,2.472,0,0,0,.3.081,1.9,1.9,0,0,0,2.158-1.587,22.793,22.793,0,0,0-1.623-13.3,21.127,21.127,0,0,0-8.673-9.754,1.832,1.832,0,0,0-2.519.755A1.934,1.934,0,0,0,46.095,23.6ZM69.423,46.771a37.5,37.5,0,0,0-2.672-21.9A34.765,34.765,0,0,0,52.469,8.809a1.818,1.818,0,0,0-2.507.76,1.965,1.965,0,0,0,.689,2.626A31.111,31.111,0,0,1,63.419,26.547,33.474,33.474,0,0,1,65.8,46.12a1.89,1.89,0,0,0,1.179,2.133,2.19,2.19,0,0,0,.3.082A1.855,1.855,0,0,0,69.423,46.771Z"/>
</svg>
