<svg id="Layer_1" data-name="Layer 1" xmlns="http://www.w3.org/2000/svg" viewBox="0 0 600 600"><defs><style>.cls-1{fill:none;stroke:#fff;stroke-linecap:round;stroke-linejoin:round;stroke-width:10px;}</style></defs><title>Svg</title><path class="cls-1" d="M320.26,349.63V310.92a4.54,4.54,0,0,1,4.54-4.54H366a4.54,4.54,0,0,0,4.54-4.54V262.16a4.54,4.54,0,0,0-4.54-4.54H319.55a4.54,4.54,0,0,1-4.54-4.54V209.57a12,12,0,0,1,12-12h42a4.54,4.54,0,0,0,4.54-4.54V153.37a4.54,4.54,0,0,0-4.54-4.54H330.05a69.81,69.81,0,0,0-69.81,69.81v36.67a4.54,4.54,0,0,1-4.54,4.54H231a4.54,4.54,0,0,0-4.54,4.54v41.18a4.54,4.54,0,0,0,4.54,4.54h27.65a4.54,4.54,0,0,1,4.54,4.56c-.11,21.27-.6,110.62-.7,131.93a4.53,4.53,0,0,0,4.54,4.55h48.67a4.54,4.54,0,0,0,4.54-4.54V432.05"/><line class="cls-1" x1="320.27" y1="365.17" x2="320.27" y2="415.87"/></svg>